# xmcd CD database file
#
# Track frame offsets:
#	150
#	4701
#	21435
#	40503
#	65748
#	83958
#	106551
#	120213
#	147552
#	153368
#	165585
#	185304
#	208449
#	227772
#	232329
#
# Disc length: 3278 seconds
#
# Revision: 0
# Processed by: cddbd v1.5.2PL0 Copyright (c) Steve Scherf et al.
# Submitted via: CDex 1.70beta2
#
DISCID=c40ccc0f
DTITLE=Louise Clare Marshall - Wait For You
DYEAR=2009
DGENRE=Blues
TTITLE0=Three Blind Mice
TTITLE1=I Think I've Loved You
TTITLE2=You Are My Sunday Morning
TTITLE3=Guess I'm Really Sorry
TTITLE4=Wait For You
TTITLE5=I Wanna Dance With Somebody
TTITLE6=We Got Freedom
TTITLE7=You're The Reason
TTITLE8=Interloudal
TTITLE9=Music for a While '09
TTITLE10=A Mindless Love Song
TTITLE11=I've Found Myself
TTITLE12=You Don't Know Me
TTITLE13=Don't Know
TTITLE14=Music for a While '78
EXTD=YEAR: 2009
EXTT0=
EXTT1=
EXTT2=
EXTT3=
EXTT4=
EXTT5=
EXTT6=
EXTT7=
EXTT8=
EXTT9=
EXTT10=
EXTT11=
EXTT12=
EXTT13=
EXTT14=
PLAYORDER=
